<svg xmlns="http://www.w3.org/2000/svg" width="87" height="87" viewBox="0 0 87 87">
  <path id="Icon_awesome-check-circle" data-name="Icon awesome-check-circle" d="M87.563,44.063a43.5,43.5,0,1,1-43.5-43.5A43.5,43.5,0,0,1,87.563,44.063ZM39.031,67.1,71.305,34.821a2.806,2.806,0,0,0,0-3.969l-3.969-3.969a2.806,2.806,0,0,0-3.969,0L37.047,53.2,24.758,40.916a2.807,2.807,0,0,0-3.969,0L16.82,44.885a2.807,2.807,0,0,0,0,3.969L35.062,67.1A2.807,2.807,0,0,0,39.031,67.1Z" transform="translate(-0.563 -0.563)" fill="#2eb70d"/>
</svg>
