<svg xmlns="http://www.w3.org/2000/svg" width="134.688" height="29.386" viewBox="0 0 134.688 29.386">
  <g id="Group_2" data-name="Group 2" transform="translate(-1310.511 -796.399)">
    <g id="Group_7101" data-name="Group 7101" transform="translate(1310.511 796.398)">
      <g id="Group_7100" data-name="Group 7100">
        <rect id="Rectangle_5061" data-name="Rectangle 5061" width="3.713" height="19.083" transform="translate(101.952 4.552)" fill="#fff"/>
        <path id="Path_10657" data-name="Path 10657" d="M1461.341,815.564c-1.592,0-2.628.607-2.628,2.281v2.946c0,1.836.58,3,2.572,3,2.5,0,2.841-2.229,2.841-4.273,0-2.1-.293-3.954-2.785-3.954m.792,10.99a3.4,3.4,0,0,1-3.288-1.619h-.052v6.75h-3.745v-18.75h3.159l.241,1.565h.049a4.119,4.119,0,0,1,3.772-1.857c4.063,0,5.654,3.185,5.654,6.824,0,3.8-1.567,7.087-5.79,7.087" transform="translate(-1367.891 -802.847)" fill="#fff"/>
        <path id="Path_10658" data-name="Path 10658" d="M1519.053,826.984c-1.752,4.434-2.607,5.441-5.846,5.441a16.664,16.664,0,0,1-2.017-.131v-3.1a12.7,12.7,0,0,0,1.487.078c1.431,0,1.78-.373,2.258-1.567l.61-1.513-5.231-13.063h4.062l3.082,9.212h.057l2.993-9.212h4.011Z" transform="translate(-1389.83 -803.039)" fill="#fff"/>
        <path id="Path_10659" data-name="Path 10659" d="M1501,823.127v-5.12c0-3.821-1.462-5.364-5.364-5.364a13.448,13.448,0,0,0-6.4,1.591l1.169,2.551a10.142,10.142,0,0,1,4.883-1.382c1.354,0,1.965.4,1.965,1.649v.634c-3.32-.026-8.338.426-8.338,4.832,0,2.579,1.783,4.062,4.3,4.062a7.025,7.025,0,0,0,4.433-1.574,1.781,1.781,0,0,0,.035.192c.408,1.285,2.614,1.374,4.282,1.285l.129-2.839c-.694-.021-1.1-.111-1.1-.516m-3.665-.133a5.168,5.168,0,0,1-3.025,1.063,1.645,1.645,0,0,1-1.752-1.8c0-2.414,3.029-2.442,4.778-2.442Z" transform="translate(-1381.336 -802.847)" fill="#fff"/>
        <path id="Path_10660" data-name="Path 10660" d="M1386.594,815.586c-2.338,0-3.057,1.41-3.057,4.012,0,2.656.743,4.115,3.081,4.115,2.286,0,3.026-1.431,3.026-4.115,0-2.6-.719-4.012-3.051-4.012m0,10.968c-4.621,0-6.847-2.817-6.847-6.956,0-3.876,1.986-6.955,6.847-6.955,4.485,0,6.82,2.654,6.82,6.955,0,4.115-2.179,6.956-6.82,6.956" transform="translate(-1337.997 -802.847)" fill="#fff"/>
        <path id="Path_10661" data-name="Path 10661" d="M1360.1,805.863v3.319h4.987v14.609h3.93V809.182h4.994v-3.319Z" transform="translate(-1330.199 -800.156)" fill="#fff"/>
        <path id="Path_10662" data-name="Path 10662" d="M1411.653,821.27c-1.913.049-2.094-.2-2.108-1.337,0-.057,0-.122,0-.182V813.8h3.078v-3h-3.078v-3.53h-3.689v3.53h-2.2v3h2.174v6.347c0,3.209.88,4.219,4.488,4.219.663,0,1.3-.082,2.307-.183v-2.98c-.276.026-.5.054-.967.065" transform="translate(-1347.486 -800.715)" fill="#fff"/>
        <rect id="Rectangle_5062" data-name="Rectangle 5062" width="3.716" height="19.083" transform="translate(81.34 4.552)" fill="#fff"/>
        <path id="Path_10663" data-name="Path 10663" d="M1433.132,823.127v-5.12c0-3.821-1.459-5.364-5.364-5.364a13.453,13.453,0,0,0-6.4,1.591l1.169,2.551a10.17,10.17,0,0,1,4.886-1.382c1.351,0,1.961.4,1.961,1.649v.634c-3.315-.026-8.334.426-8.334,4.832,0,2.579,1.78,4.062,4.3,4.062a7.022,7.022,0,0,0,4.432-1.574,1.191,1.191,0,0,0,.035.192c.408,1.285,2.617,1.374,4.283,1.285l.132-2.839c-.695-.021-1.1-.111-1.1-.516m-3.664-.133a5.145,5.145,0,0,1-3.026,1.063,1.645,1.645,0,0,1-1.752-1.8c0-2.414,3.025-2.442,4.778-2.442Z" transform="translate(-1354.395 -802.847)" fill="#fff"/>
        <path id="Path_10664" data-name="Path 10664" d="M1318.172,801.493a.572.572,0,0,0,0-1.084l-6.719-3.883c-.52-.3-.942-.054-.942.544v7.762c0,.6.422.841.942.543Z" transform="translate(-1310.511 -796.398)" fill="#fff"/>
        <path id="Path_10665" data-name="Path 10665" d="M1318.172,817.97a.574.574,0,0,0,0-1.087L1311.453,813c-.52-.3-.942-.051-.942.543v7.762c0,.6.422.843.942.543Z" transform="translate(-1310.511 -802.94)" fill="#fff"/>
        <path id="Path_10666" data-name="Path 10666" d="M1318.172,834.441a.573.573,0,0,0,0-1.086l-6.719-3.879c-.52-.3-.942-.054-.942.544v7.761c0,.6.422.84.942.543Z" transform="translate(-1310.511 -809.479)" fill="#fff"/>
        <path id="Path_10667" data-name="Path 10667" d="M1324.783,813.072c0,.6.419.839.939.541l6.718-3.881a.572.572,0,0,0,0-1.085l-6.718-3.883c-.52-.295-.939-.054-.939.544Z" transform="translate(-1316.177 -799.67)" fill="#fff"/>
        <path id="Path_10668" data-name="Path 10668" d="M1324.783,829.543c0,.6.419.842.939.543l6.718-3.879a.574.574,0,0,0,0-1.087l-6.718-3.879c-.52-.3-.939-.054-.939.543Z" transform="translate(-1316.177 -806.209)" fill="#fff"/>
        <path id="Path_10669" data-name="Path 10669" d="M1339.038,821.306c0,.6.426.843.946.543l6.718-3.879a.574.574,0,0,0,0-1.087L1339.984,813c-.52-.3-.946-.051-.946.543Z" transform="translate(-1321.836 -802.94)" fill="#fff"/>
      </g>
    </g>
  </g>
</svg>
