<svg id="Capa_1" data-name="Capa 1" xmlns="http://www.w3.org/2000/svg" width="136.406" height="28.042" viewBox="0 0 136.406 28.042">
  <path id="Path_178" data-name="Path 178" d="M413.8,32.327a2.918,2.918,0,1,1,2.91,2.7,2.814,2.814,0,0,1-2.91-2.7m.483,0a2.424,2.424,0,0,0,4.835,0,2.424,2.424,0,0,0-4.835,0m3.755,1.458h-.66l-.435-1.029c-.054-.095-.054-.11-.2-.11h-.518v1.139h-.562V30.841c.442-.028.761-.047,1.079-.047.631,0,1.209.2,1.209.928a.817.817,0,0,1-.5.779,13.285,13.285,0,0,1,.584,1.284m-1.811-2.474v.83h.565c.35,0,.6-.1.6-.385,0-.363-.215-.458-.631-.458h-.533" transform="translate(-283.214 -20.266)" fill="#75797c"/>
  <rect id="Rectangle_4959" data-name="Rectangle 4959" width="3.547" height="18.212" transform="translate(97.293 4.342)" fill="#75797c"/>
  <path id="Path_179" data-name="Path 179" d="M269.565,32.4c-1.518,0-2.509.581-2.509,2.177v2.812c0,1.751.559,2.862,2.458,2.862,2.379,0,2.711-2.124,2.711-4.077,0-2-.281-3.787-2.66-3.787m.761,10.5a3.3,3.3,0,0,1-3.156-1.546h-.051v6.438h-3.56V29.888h3.017l.227,1.5h.05a3.926,3.926,0,0,1,3.6-1.774c3.875,0,5.4,3.042,5.4,6.514,0,3.623-1.5,6.766-5.523,6.766" transform="translate(-180.386 -20.266)" fill="#75797c"/>
  <path id="Path_180" data-name="Path 180" d="M372.684,43.716c-1.669,4.232-2.48,5.194-5.573,5.194a16.606,16.606,0,0,1-1.928-.123V45.821a11.742,11.742,0,0,0,1.42.076c1.366,0,1.7-.353,2.152-1.493l.587-1.445L364.35,30.49h3.875l2.957,8.8h.051l2.862-8.8h3.822Z" transform="translate(-249.369 -20.868)" fill="#75797c"/>
  <path id="Path_181" data-name="Path 181" d="M336.858,39.617V34.732c0-3.651-1.395-5.122-5.116-5.122a12.822,12.822,0,0,0-6.106,1.521l1.114,2.433a9.713,9.713,0,0,1,4.661-1.306c1.291,0,1.875.379,1.875,1.578v.6c-3.156-.022-7.956.41-7.956,4.614,0,2.458,1.7,3.878,4.1,3.878a6.712,6.712,0,0,0,4.232-1.521.652.652,0,0,0,.035.186c.388,1.224,2.493,1.306,4.084,1.224l.129-2.708c-.669-.022-1.054-.107-1.054-.5m-3.5-.123a4.945,4.945,0,0,1-2.888,1.013,1.571,1.571,0,0,1-1.673-1.723c0-2.3,2.888-2.329,4.56-2.329Z" transform="translate(-222.663 -20.266)" fill="#75797c"/>
  <path id="Path_182" data-name="Path 182" d="M132.826,32.48c-2.231,0-2.916,1.341-2.916,3.825,0,2.525.71,3.929,2.938,3.929,2.181,0,2.888-1.366,2.888-3.929,0-2.484-.685-3.825-2.91-3.825m0,10.465c-4.418,0-6.536-2.689-6.536-6.627,0-3.7,1.893-6.627,6.536-6.627,4.282,0,6.51,2.525,6.51,6.627,0,3.929-2.08,6.627-6.51,6.627" transform="translate(-86.436 -20.321)" fill="#75797c"/>
  <path id="Path_183" data-name="Path 183" d="M90.43,17.25v3.165H95.2V34.361h3.749V20.415H103.7V17.25Z" transform="translate(-61.892 -11.807)" fill="#75797c"/>
  <path id="Path_184" data-name="Path 184" d="M177.464,33.178c-1.821.047-2-.189-2.01-1.262V26.053h2.957V23.187h-2.938V19.82h-3.534v3.367h-2.1v2.865h2.077v6.059c0,3.061.836,4.024,4.282,4.024a21.673,21.673,0,0,0,2.209-.177V33.131c-.265.025-.483.05-.928.06" transform="translate(-116.242 -13.566)" fill="#75797c"/>
  <rect id="Rectangle_4960" data-name="Rectangle 4960" width="3.547" height="18.212" transform="translate(77.623 4.342)" fill="#75797c"/>
  <path id="Path_185" data-name="Path 185" d="M213.1,39.617V34.732c0-3.651-1.392-5.122-5.116-5.122a12.831,12.831,0,0,0-6.106,1.521l1.111,2.433a9.735,9.735,0,0,1,4.664-1.306c1.294,0,1.875.379,1.875,1.578v.6c-3.156-.022-7.953.41-7.953,4.614,0,2.458,1.695,3.878,4.1,3.878a6.725,6.725,0,0,0,4.235-1.521,1.021,1.021,0,0,0,.032.186c.385,1.224,2.493,1.306,4.08,1.224l.129-2.708c-.666-.022-1.051-.107-1.051-.5m-3.506-.123a4.945,4.945,0,0,1-2.888,1.013,1.572,1.572,0,0,1-1.673-1.723c0-2.3,2.888-2.329,4.56-2.329Z" transform="translate(-137.966 -20.266)" fill="#75797c"/>
  <path id="Path_186" data-name="Path 186" d="M7.312,4.861a.547.547,0,0,0,0-1.035L.9.124C.4-.163,0,.074,0,.632V8.048c0,.571.4.8.9.521Z" transform="translate(0 -0.002)" fill="#b5b5b6"/>
  <path id="Path_187" data-name="Path 187" d="M7.312,34.9a.547.547,0,0,0,0-1.035L.9,30.158c-.5-.284-.9-.05-.9.518v7.41c0,.571.4.8.9.518Z" transform="translate(0 -20.558)" fill="#b5b5b6"/>
  <path id="Path_188" data-name="Path 188" d="M7.312,64.946a.547.547,0,0,0,0-1.035L.9,60.206c-.5-.284-.9-.054-.9.518v7.407c0,.568.4.8.9.518Z" transform="translate(0 -41.124)" fill="#b5b5b6"/>
  <path id="Path_189" data-name="Path 189" d="M26,23.065c0,.574.4.808.9.521l6.419-3.7a.547.547,0,0,0,0-1.035l-6.416-3.7c-.5-.281-.9-.05-.9.521Z" transform="translate(-17.795 -10.281)" fill="#b5b5b6"/>
  <path id="Path_190" data-name="Path 190" d="M26,53.105c0,.571.4.8.9.521l6.419-3.7a.55.55,0,0,0,0-1.038l-6.416-3.7c-.5-.284-.9-.05-.9.521Z" transform="translate(-17.795 -30.838)" fill="#b5b5b6"/>
  <path id="Path_191" data-name="Path 191" d="M52,38.085c0,.571.4.8.9.518l6.422-3.7a.546.546,0,0,0,0-1.035l-6.413-3.7c-.5-.284-.9-.05-.9.521Z" transform="translate(-35.59 -20.558)" fill="#b5b5b6"/>
</svg>
