<svg xmlns="http://www.w3.org/2000/svg" width="157.431" height="150.65" viewBox="0 0 157.431 150.65">
  <g id="Group_12095" data-name="Group 12095" transform="translate(-766.414 -1085.869)">
    <g id="Group_12081" data-name="Group 12081" transform="translate(890.137 1118.233)">
      <path id="Path_10685" data-name="Path 10685" d="M1063.134,1252.992a2.948,2.948,0,0,1-2.948-2.948v-84.38a2.948,2.948,0,0,1,5.9,0v84.38A2.948,2.948,0,0,1,1063.134,1252.992Z" transform="translate(-1060.186 -1162.716)" fill="#fff"/>
    </g>
    <g id="Group_12082" data-name="Group 12082" transform="translate(794.224 1085.87)">
      <path id="Path_10686" data-name="Path 10686" d="M835.4,1209.225a2.948,2.948,0,0,1-2.948-2.948V1093.784a7.923,7.923,0,0,1,7.914-7.914h58.582a2.948,2.948,0,1,1,0,5.9H840.361a2.021,2.021,0,0,0-2.018,2.018v112.493A2.948,2.948,0,0,1,835.4,1209.225Z" transform="translate(-832.447 -1085.87)" fill="#fff"/>
    </g>
    <g id="Group_12083" data-name="Group 12083" transform="translate(857.772 1085.869)">
      <path id="Path_10687" data-name="Path 10687" d="M1018.651,1124.129h-27.4a7.923,7.923,0,0,1-7.914-7.914v-27.4a2.948,2.948,0,0,1,5.032-2.085l32.365,32.364a2.948,2.948,0,0,1-2.084,5.033Zm-29.417-28.194v20.28a2.02,2.02,0,0,0,2.018,2.018h20.281Z" transform="translate(-983.338 -1085.869)" fill="#fff"/>
    </g>
    <g id="Group_12084" data-name="Group 12084" transform="translate(781.034 1126.904)">
      <path id="Path_10688" data-name="Path 10688" d="M920.328,1268.7H810.116a9,9,0,0,1-8.989-8.99v-67.414a9,9,0,0,1,8.989-8.989h5.057a2.948,2.948,0,1,1,0,5.9h-5.057a3.1,3.1,0,0,0-3.093,3.093v67.414a3.135,3.135,0,0,0,3.093,3.094H920.328a3.174,3.174,0,0,0,3.092-3.094v-53.589a2.948,2.948,0,0,1,5.9,0v53.589A9.109,9.109,0,0,1,920.328,1268.7Z" transform="translate(-801.127 -1183.305)" fill="#fff"/>
    </g>
    <g id="Group_12085" data-name="Group 12085" transform="translate(781.034 1126.904)">
      <path id="Path_10689" data-name="Path 10689" d="M920.326,1268.7H810.115a9.109,9.109,0,0,1-8.988-8.99v-53.589a2.948,2.948,0,0,1,5.9,0v53.589a3.174,3.174,0,0,0,3.092,3.094H920.326a3.135,3.135,0,0,0,3.093-3.094v-67.414a3.134,3.134,0,0,0-3.093-3.093h-4.884a2.948,2.948,0,1,1,0-5.9h4.884a9,9,0,0,1,8.99,8.989v67.414A9,9,0,0,1,920.326,1268.7Z" transform="translate(-801.127 -1183.305)" fill="#fff"/>
    </g>
    <g id="Group_12086" data-name="Group 12086" transform="translate(902.372 1206.796)">
      <path id="Path_10690" data-name="Path 10690" d="M1107.6,1400.661a2.943,2.943,0,0,1-2.408-1.244l-15.415-21.76a2.948,2.948,0,0,1,4.811-3.408l15.415,21.76a2.949,2.949,0,0,1-2.4,4.652Z" transform="translate(-1089.238 -1373.004)" fill="#fff"/>
    </g>
    <g id="Group_12087" data-name="Group 12087" transform="translate(915.531 1228.556)">
      <path id="Path_10691" data-name="Path 10691" d="M1123.431,1432.634a4.116,4.116,0,1,1,4.6-6.806,3.651,3.651,0,0,1,.368,3.911A5.823,5.823,0,0,1,1123.431,1432.634Zm-.086-3.222h0Z" transform="translate(-1120.483 -1424.672)" fill="#fff"/>
    </g>
    <g id="Group_12088" data-name="Group 12088" transform="translate(766.414 1206.796)">
      <path id="Path_10692" data-name="Path 10692" d="M918.479,1402.726H771.77a5.85,5.85,0,0,1-4.921-2.818,3.7,3.7,0,0,1,.259-3.9l15.421-21.761a2.948,2.948,0,0,1,4.81,3.409l-13.588,19.174H918.479a2.948,2.948,0,0,1,0,5.9Z" transform="translate(-766.414 -1373.004)" fill="#fff"/>
    </g>
    <g id="Group_12089" data-name="Group 12089" transform="translate(811.971 1129.078)">
      <path id="Path_10693" data-name="Path 10693" d="M882.624,1207.812h-.006a2.948,2.948,0,0,1-2.334-1.155l-5.089-6.642a2.948,2.948,0,1,1,4.681-3.586l2.758,3.6,8.051-10.418a2.948,2.948,0,1,1,4.666,3.6l-10.394,13.451A2.948,2.948,0,0,1,882.624,1207.812Z" transform="translate(-874.587 -1188.465)" fill="#fff"/>
    </g>
    <g id="Group_12090" data-name="Group 12090" transform="translate(839.003 1137.152)">
      <path id="Path_10694" data-name="Path 10694" d="M975.1,1213.533H941.719a2.948,2.948,0,1,1,0-5.9H975.1a2.948,2.948,0,1,1,0,5.9Z" transform="translate(-938.771 -1207.637)" fill="#fff"/>
    </g>
    <g id="Group_12091" data-name="Group 12091" transform="translate(811.971 1150.314)">
      <path id="Path_10695" data-name="Path 10695" d="M882.624,1258.237h-.006a2.948,2.948,0,0,1-2.334-1.155l-5.089-6.642a2.948,2.948,0,1,1,4.681-3.586l2.758,3.6,8.051-10.419a2.948,2.948,0,0,1,4.666,3.605l-10.394,13.45A2.948,2.948,0,0,1,882.624,1258.237Z" transform="translate(-874.587 -1238.891)" fill="#fff"/>
    </g>
    <g id="Group_12092" data-name="Group 12092" transform="translate(839.003 1158.389)">
      <path id="Path_10696" data-name="Path 10696" d="M975.1,1263.959H941.719a2.948,2.948,0,1,1,0-5.9H975.1a2.948,2.948,0,1,1,0,5.9Z" transform="translate(-938.771 -1258.063)" fill="#fff"/>
    </g>
    <g id="Group_12093" data-name="Group 12093" transform="translate(811.82 1171.401)">
      <path id="Path_10697" data-name="Path 10697" d="M882.264,1308.306h-.006a2.947,2.947,0,0,1-2.334-1.155l-5.089-6.642a2.948,2.948,0,0,1,4.68-3.587l2.759,3.6,8.05-10.418a2.948,2.948,0,1,1,4.666,3.605l-10.393,13.45A2.949,2.949,0,0,1,882.264,1308.306Z" transform="translate(-874.227 -1288.96)" fill="#fff"/>
    </g>
    <g id="Group_12094" data-name="Group 12094" transform="translate(838.851 1179.475)">
      <path id="Path_10698" data-name="Path 10698" d="M974.746,1314.028H941.36a2.948,2.948,0,1,1,0-5.9h33.386a2.948,2.948,0,1,1,0,5.9Z" transform="translate(-938.412 -1308.132)" fill="#fff"/>
    </g>
  </g>
</svg>
